<svg width="20" height="20" fill="none" xmlns="http://www.w3.org/2000/svg"><g clip-path="url(#a)" stroke="#2F2F2F" stroke-width="1.8" stroke-linecap="round" stroke-linejoin="round"><path d="M14.95 14.95A8.391 8.391 0 0 1 10 16.667C4.166 16.667.833 10 .833 10A15.375 15.375 0 0 1 5.05 5.05m3.2-1.517a7.6 7.6 0 0 1 1.75-.2c5.833 0 9.166 6.667 9.166 6.667a15.414 15.414 0 0 1-1.8 2.658m-5.6-.891a2.5 2.5 0 1 1-3.533-3.534M.833.833l18.333 18.334"/></g><defs><clipPath id="a"><path fill="#fff" d="M0 0h20v20H0z"/></clipPath></defs></svg>