<svg xmlns="http://www.w3.org/2000/svg" aria-hidden="true">
  <defs>

<symbol id="icon-close"  viewBox="0 0 28 28" fill="none">
  <path d="M21 7L7 21" stroke="#2F2F2F" stroke-width="3" stroke-linecap="round" stroke-linejoin="round" />
  <path d="M7 7L21 21" stroke="#2F2F2F" stroke-width="3" stroke-linecap="round" stroke-linejoin="round" />
</symbol>
<symbol id="icon-close-in-round" width="30" height="30" viewBox="0 0 30 30" fill="none" >
  <rect width="30" height="30" rx="15" fill="#9BE1A0" />
  <path d="M15 9.64282V20.3571" stroke="#323F47" stroke-width="1.5" stroke-linecap="round" stroke-linejoin="round" />
  <path d="M9.64307 15H20.3574" stroke="#323F47" stroke-width="1.5" stroke-linecap="round" stroke-linejoin="round" />
</symbol>
<symbol id="icon-plus-hover" width="30" height="30" viewBox="0 0 30 30" fill="none" >
  <rect width="30" height="30" rx="15" fill="#323F47" />
  <path d="M15 9.64288V20.3572" stroke="white" stroke-width="1.5" stroke-linecap="round" stroke-linejoin="round" />
  <path d="M9.64258 15H20.3569" stroke="white" stroke-width="1.5" stroke-linecap="round" stroke-linejoin="round" />
</symbol>
<symbol id="icon-water" viewBox="0 0 38 38" fill="none" >
  <path d="M32.7365 6.20549C32.6216 5.8248 32.4278 5.47344 32.1679 5.175C31.9081 4.87657 31.5882 4.63797 31.2299 4.47524C30.874 4.30645 30.4851 4.2212 30.0922 4.22583H7.96951C7.57678 4.20344 7.18499 4.28397 6.83186 4.45965C6.46571 4.62419 6.14016 4.8691 5.87869 5.17669C5.61895 5.47461 5.42501 5.82538 5.30986 6.20549C5.19072 6.58265 5.154 6.98158 5.20225 7.37458L7.72353 29.1976C7.89264 30.6909 8.59983 32.0658 9.70673 33.0634C10.7887 34.0598 12.1961 34.6151 13.6578 34.6222H24.4193C25.8858 34.6159 27.2983 34.0608 28.3857 33.0634C29.4782 32.0561 30.1766 30.6839 30.3536 29.1976L31.7218 16.9299V16.7429L32.7826 7.39017C32.8421 6.99592 32.8265 6.59376 32.7365 6.20549ZM17.2091 30.1329H15.6717C14.6758 30.0767 13.7278 29.6812 12.9813 29.0105C12.2375 28.3309 11.7486 27.4111 11.5977 26.4074L11.2287 23.7262C11.1814 23.3175 11.2937 22.9063 11.5417 22.5805C11.7897 22.2548 12.1536 22.0404 12.5556 21.9834C12.9575 21.9263 13.3655 22.0311 13.6922 22.2753C14.0189 22.5194 14.2383 22.8836 14.3035 23.2898L14.6724 25.9397C14.7138 26.2294 14.8555 26.4946 15.0721 26.6879C15.287 26.8878 15.5648 27.0039 15.8562 27.0153H17.3936C17.8013 27.0153 18.1923 27.1795 18.4807 27.4718C18.769 27.7642 18.9309 28.1607 18.9309 28.5741C18.9309 28.9875 18.769 29.384 18.4807 29.6763C18.1923 29.9686 17.8013 30.1329 17.3936 30.1329H17.2091ZM29.508 15.7453C26.2642 16.3844 23.4969 16.5091 20.5605 14.1865C16.917 11.2715 12.5047 12.2068 8.26161 13.7344L7.49293 7.12517C7.4778 7.0585 7.4778 6.98921 7.49293 6.92253C7.51385 6.85704 7.55089 6.79803 7.60054 6.75107C7.63692 6.69354 7.69094 6.64972 7.75428 6.62636C7.81458 6.60903 7.87846 6.60903 7.93876 6.62636H30.2613C30.319 6.65906 30.371 6.70119 30.4151 6.75107C30.4612 6.79783 30.4919 6.85862 30.5073 6.92253C30.5308 6.99334 30.5308 7.06996 30.5073 7.14076L29.508 15.7453Z" fill="#9BE1A0" />
</symbol>
<symbol id="icon-upload" viewBox="0 0 20 20" fill="none">
  <path d="M17.5 12.5V15.8333C17.5 16.2754 17.3244 16.6993 17.0118 17.0118C16.6993 17.3244 16.2754 17.5 15.8333 17.5H4.16667C3.72464 17.5 3.30072 17.3244 2.98816 17.0118C2.67559 16.6993 2.5 16.2754 2.5 15.8333V12.5" stroke="#2F2F2F" stroke-width="1.8" stroke-linecap="round" stroke-linejoin="round" />
  <path d="M14.1663 6.66667L9.99967 2.5L5.83301 6.66667" stroke="#2F2F2F" stroke-width="1.8" stroke-linecap="round" stroke-linejoin="round" />
  <path d="M10 2.5V12.5" stroke="#2F2F2F" stroke-width="1.8" stroke-linecap="round" stroke-linejoin="round" />
</symbol>
<symbol id="icon-eye" viewBox="0 0 20 20" fill="none">
  <g clip-path="url(#clip0_72_8574)">
    <path d="M0.833008 9.99998C0.833008 9.99998 4.16634 3.33331 9.99967 3.33331C15.833 3.33331 19.1663 9.99998 19.1663 9.99998C19.1663 9.99998 15.833 16.6666 9.99967 16.6666C4.16634 16.6666 0.833008 9.99998 0.833008 9.99998Z" stroke="#2F2F2F" stroke-width="1.8" stroke-linecap="round" stroke-linejoin="round" />
    <path d="M10 12.5C11.3807 12.5 12.5 11.3807 12.5 10C12.5 8.61929 11.3807 7.5 10 7.5C8.61929 7.5 7.5 8.61929 7.5 10C7.5 11.3807 8.61929 12.5 10 12.5Z" stroke="#2F2F2F" stroke-width="1.8" stroke-linecap="round" stroke-linejoin="round" />
  </g>
  <defs>
    <clipPath id="clip0_72_8574">
      <rect width="20" height="20" fill="white" />
    </clipPath>
  </defs>
</symbol>
<symbol id="icon-statistics" viewBox="0 0 24 24" fill="none">
  <path d="M17.2 14C17.477 14 17.6155 14 17.7278 14.0615C17.8204 14.1122 17.9065 14.2075 17.9478 14.3047C17.9978 14.4225 17.9852 14.5479 17.96 14.7987C17.8296 16.0987 17.3822 17.3514 16.6518 18.4445C15.7727 19.7601 14.5233 20.7855 13.0615 21.391C11.5997 21.9965 9.99113 22.1549 8.43928 21.8463C6.88743 21.5376 5.46197 20.7756 4.34315 19.6568C3.22433 18.538 2.4624 17.1125 2.15372 15.5607C1.84504 14.0088 2.00347 12.4003 2.60897 10.9385C3.21447 9.4767 4.23985 8.22727 5.55544 7.34822C6.64856 6.61782 7.90125 6.17038 9.20131 6.03994C9.45207 6.01478 9.57745 6.0022 9.69528 6.05219C9.79249 6.09343 9.88776 6.17962 9.9385 6.27222C10 6.38448 10 6.52298 10 6.79998V13.2C10 13.48 10 13.62 10.0545 13.727C10.1024 13.8211 10.1789 13.8975 10.273 13.9455C10.38 14 10.52 14 10.8 14H17.2Z" stroke="#323F47" stroke-width="2" stroke-linecap="round" stroke-linejoin="round" />
  <path d="M14 2.79999C14 2.52298 14 2.38448 14.0615 2.27223C14.1122 2.17963 14.2075 2.09344 14.3047 2.0522C14.4225 2.0022 14.5479 2.01478 14.7987 2.03993C16.6271 2.22333 18.346 3.03229 19.6569 4.34313C20.9677 5.65398 21.7767 7.37289 21.9601 9.20129C21.9852 9.45206 21.9978 9.57744 21.9478 9.69527C21.9066 9.79248 21.8204 9.88774 21.7278 9.93848C21.6155 9.99998 21.477 9.99999 21.2 9.99999L14.8 9.99999C14.52 9.99999 14.38 9.99999 14.273 9.94549C14.1789 9.89755 14.1024 9.82106 14.0545 9.72698C14 9.62003 14 9.48001 14 9.19999L14 2.79999Z" stroke="#9BE1A0" stroke-width="2" stroke-linecap="round" stroke-linejoin="round" />
</symbol>
<symbol id="icon-log-out" viewBox="0 0 16 16" fill="none" >
  <path d="M6 14H3.33333C2.97971 14 2.64057 13.8595 2.39052 13.6095C2.14048 13.3594 2 13.0203 2 12.6667V3.33333C2 2.97971 2.14048 2.64057 2.39052 2.39052C2.64057 2.14048 2.97971 2 3.33333 2H6" stroke-width="1.5" stroke-linecap="round" stroke-linejoin="round" />
  <path d="M10.667 11.3334L14.0003 8.00002L10.667 4.66669" stroke-width="1.5" stroke-linecap="round" stroke-linejoin="round" />
  <path d="M14 8H6"  stroke-width="1.5" stroke-linecap="round" stroke-linejoin="round" />
</symbol>
<symbol id="icon-settings" viewBox="0 0 16 16" fill="none">
  <g clip-path="url(#clip0_72_3790)">
    <path d="M8 10C9.10457 10 10 9.10457 10 8C10 6.89543 9.10457 6 8 6C6.89543 6 6 6.89543 6 8C6 9.10457 6.89543 10 8 10Z" stroke="#323F47" stroke-width="1.5" stroke-linecap="round" stroke-linejoin="round" />
    <path d="M12.9337 10C12.8449 10.2011 12.8184 10.4242 12.8577 10.6404C12.8969 10.8567 13 11.0562 13.1537 11.2134L13.1937 11.2534C13.3176 11.3772 13.416 11.5242 13.4831 11.6861C13.5502 11.848 13.5847 12.0215 13.5847 12.1967C13.5847 12.3719 13.5502 12.5454 13.4831 12.7073C13.416 12.8691 13.3176 13.0162 13.1937 13.14C13.0698 13.264 12.9228 13.3623 12.7609 13.4294C12.599 13.4965 12.4255 13.5311 12.2503 13.5311C12.0751 13.5311 11.9016 13.4965 11.7397 13.4294C11.5779 13.3623 11.4308 13.264 11.307 13.14L11.267 13.1C11.1099 12.9463 10.9103 12.8432 10.6941 12.804C10.4778 12.7648 10.2547 12.7913 10.0537 12.88C9.85648 12.9645 9.68831 13.1049 9.56986 13.2837C9.45141 13.4626 9.38785 13.6722 9.38699 13.8867V14C9.38699 14.3536 9.24652 14.6928 8.99647 14.9428C8.74642 15.1929 8.40728 15.3334 8.05366 15.3334C7.70004 15.3334 7.3609 15.1929 7.11085 14.9428C6.8608 14.6928 6.72033 14.3536 6.72033 14V13.94C6.71516 13.7194 6.64374 13.5054 6.51533 13.3258C6.38693 13.1463 6.20748 13.0095 6.00033 12.9334C5.79925 12.8446 5.5762 12.8181 5.35993 12.8574C5.14367 12.8966 4.94411 12.9997 4.78699 13.1534L4.74699 13.1934C4.62316 13.3173 4.47611 13.4157 4.31425 13.4828C4.15238 13.5499 3.97888 13.5844 3.80366 13.5844C3.62844 13.5844 3.45494 13.5499 3.29307 13.4828C3.13121 13.4157 2.98416 13.3173 2.86033 13.1934C2.73636 13.0695 2.63801 12.9225 2.57091 12.7606C2.50381 12.5987 2.46928 12.4252 2.46928 12.25C2.46928 12.0748 2.50381 11.9013 2.57091 11.7394C2.63801 11.5776 2.73636 11.4305 2.86033 11.3067L2.90033 11.2667C3.05402 11.1096 3.15712 10.91 3.19633 10.6937C3.23554 10.4775 3.20907 10.2544 3.12033 10.0534C3.03582 9.85618 2.8955 9.68801 2.71664 9.56956C2.53778 9.45111 2.32818 9.38754 2.11366 9.38669H2.00033C1.6467 9.38669 1.30757 9.24621 1.05752 8.99616C0.807468 8.74611 0.666992 8.40698 0.666992 8.05335C0.666992 7.69973 0.807468 7.36059 1.05752 7.11055C1.30757 6.8605 1.6467 6.72002 2.00033 6.72002H2.06033C2.28099 6.71486 2.495 6.64343 2.67453 6.51503C2.85405 6.38662 2.9908 6.20718 3.06699 6.00002C3.15574 5.79894 3.18221 5.57589 3.143 5.35963C3.10378 5.14337 3.00068 4.94381 2.84699 4.78669L2.80699 4.74669C2.68302 4.62286 2.58468 4.47581 2.51758 4.31394C2.45048 4.15208 2.41594 3.97857 2.41594 3.80335C2.41594 3.62813 2.45048 3.45463 2.51758 3.29277C2.58468 3.1309 2.68302 2.98385 2.80699 2.86002C2.93082 2.73605 3.07787 2.63771 3.23974 2.57061C3.4016 2.50351 3.57511 2.46897 3.75033 2.46897C3.92555 2.46897 4.09905 2.50351 4.26091 2.57061C4.42278 2.63771 4.56983 2.73605 4.69366 2.86002L4.73366 2.90002C4.89078 3.05371 5.09034 3.15681 5.3066 3.19602C5.52286 3.23524 5.74592 3.20876 5.94699 3.12002H6.00033C6.19751 3.03551 6.36567 2.89519 6.48412 2.71633C6.60257 2.53747 6.66614 2.32788 6.66699 2.11335V2.00002C6.66699 1.6464 6.80747 1.30726 7.05752 1.05721C7.30757 0.807163 7.6467 0.666687 8.00033 0.666687C8.35395 0.666687 8.69309 0.807163 8.94314 1.05721C9.19318 1.30726 9.33366 1.6464 9.33366 2.00002V2.06002C9.33452 2.27454 9.39808 2.48414 9.51653 2.663C9.63498 2.84186 9.80315 2.98218 10.0003 3.06669C10.2014 3.15543 10.4245 3.1819 10.6407 3.14269C10.857 3.10348 11.0565 3.00038 11.2137 2.84669L11.2537 2.80669C11.3775 2.68272 11.5245 2.58437 11.6864 2.51727C11.8483 2.45018 12.0218 2.41564 12.197 2.41564C12.3722 2.41564 12.5457 2.45018 12.7076 2.51727C12.8694 2.58437 13.0165 2.68272 13.1403 2.80669C13.2643 2.93052 13.3626 3.07757 13.4297 3.23943C13.4968 3.4013 13.5314 3.5748 13.5314 3.75002C13.5314 3.92524 13.4968 4.09874 13.4297 4.26061C13.3626 4.42247 13.2643 4.56952 13.1403 4.69335L13.1003 4.73335C12.9466 4.89047 12.8435 5.09003 12.8043 5.30629C12.7651 5.52256 12.7916 5.74561 12.8803 5.94669V6.00002C12.9648 6.1972 13.1052 6.36537 13.284 6.48382C13.4629 6.60227 13.6725 6.66583 13.887 6.66669H14.0003C14.3539 6.66669 14.6931 6.80716 14.9431 7.05721C15.1932 7.30726 15.3337 7.6464 15.3337 8.00002C15.3337 8.35364 15.1932 8.69278 14.9431 8.94283C14.6931 9.19288 14.3539 9.33335 14.0003 9.33335H13.9403C13.7258 9.33421 13.5162 9.39778 13.3374 9.51623C13.1585 9.63468 13.0182 9.80284 12.9337 10Z" stroke="#323F47" stroke-width="1.5" stroke-linecap="round" stroke-linejoin="round" />
  </g>
  <defs>
    <clipPath id="clip0_72_3790">
      <rect width="16" height="16" fill="white" />
    </clipPath>
  </defs>
</symbol>
<symbol id="icon-bin" viewBox="0 0 16 16" fill="none">
  <path d="M6 2H10" stroke="#323F47" stroke-width="1.5" stroke-linecap="round" stroke-linejoin="round" />
  <path d="M2 4H14M12.6667 4L12.1991 11.0129C12.129 12.065 12.0939 12.5911 11.8667 12.99C11.6666 13.3412 11.3648 13.6235 11.0011 13.7998C10.588 14 10.0607 14 9.00623 14H6.99377C5.93927 14 5.41202 14 4.99889 13.7998C4.63517 13.6235 4.33339 13.3412 4.13332 12.99C3.90607 12.5911 3.871 12.065 3.80086 11.0129L3.33333 4" stroke="#323F47" stroke-width="1.8" stroke-linecap="round" stroke-linejoin="round" />
</symbol>
<symbol id="icon-pencil" viewBox="0 0 16 16" fill="none">
  <g clip-path="url(#clip0_72_3785)">
    <path d="M11.333 1.99998C11.5081 1.82488 11.716 1.68599 11.9447 1.59123C12.1735 1.49647 12.4187 1.44769 12.6663 1.44769C12.914 1.44769 13.1592 1.49647 13.3879 1.59123C13.6167 1.68599 13.8246 1.82488 13.9997 1.99998C14.1748 2.17507 14.3137 2.38294 14.4084 2.61172C14.5032 2.84049 14.552 3.08569 14.552 3.33331C14.552 3.58093 14.5032 3.82613 14.4084 4.05491C14.3137 4.28368 14.1748 4.49155 13.9997 4.66664L4.99967 13.6666L1.33301 14.6666L2.33301 11L11.333 1.99998Z" stroke="#323F47" stroke-width="1.8" stroke-linecap="round" stroke-linejoin="round" />
  </g>
  <defs>
    <clipPath id="clip0_72_3785">
      <rect width="16" height="16" fill="white" />
    </clipPath>
  </defs>
</symbol>
<symbol id="icon-eye-off" viewBox="0 0 20 20" fill="none">
  <g clip-path="url(#clip0_72_3781)">
    <path d="M14.9497 14.9499C13.5252 16.0358 11.7906 16.6373 9.99968 16.6666C4.16634 16.6666 0.833008 9.99994 0.833008 9.99994C1.86958 8.06819 3.30729 6.38045 5.04967 5.04994M8.24968 3.53327C8.82329 3.39901 9.41056 3.33189 9.99968 3.33327C15.833 3.33327 19.1663 9.99994 19.1663 9.99994C18.6605 10.9463 18.0572 11.8372 17.3663 12.6583M11.7663 11.7666C11.5375 12.0122 11.2615 12.2092 10.9548 12.3459C10.6481 12.4825 10.3171 12.556 9.98142 12.5619C9.64574 12.5678 9.31231 12.5061 9.00102 12.3803C8.68972 12.2546 8.40694 12.0675 8.16955 11.8301C7.93215 11.5927 7.745 11.3099 7.61927 10.9986C7.49353 10.6873 7.43178 10.3539 7.4377 10.0182C7.44363 9.68252 7.5171 9.35148 7.65374 9.04481C7.79038 8.73815 7.98739 8.46215 8.23301 8.23327" stroke="#2F2F2F" stroke-width="1.8" stroke-linecap="round" stroke-linejoin="round" />
    <path d="M0.833008 0.833374L19.1663 19.1667" stroke="#2F2F2F" stroke-width="1.8" stroke-linecap="round" stroke-linejoin="round" />
  </g>
  <defs>
    <clipPath id="clip0_72_3781">
      <rect width="20" height="20" fill="white" />
    </clipPath>
  </defs>
</symbol>
<symbol id="icon-plus" viewBox="0 0 16 16" fill="none">
  <path d="M8 3.33337V12.6667" stroke-width="1.5" stroke-linecap="round" stroke-linejoin="round" />
  <path d="M3.3335 8H12.6668" stroke-width="1.5" stroke-linecap="round" stroke-linejoin="round" />
</symbol>
<symbol id="icon-minus"  viewBox="0 0 16 16" fill="none">
  <path d="M3.3335 8H12.6668" stroke-width="1.5" stroke-linecap="round" stroke-linejoin="round" />
</symbol>
<symbol id="icon-next_month" viewBox="0 0 21 32">
<path d="M4.667 1.333c-0.736 0-1.403 0.299-1.885 0.781v0c-0.482 0.483-0.781 1.149-0.781 1.885s0.298 1.403 0.781 1.885l10.115 10.115-10.115 10.115c-0.482 0.483-0.781 1.149-0.781 1.885s0.298 1.403 0.781 1.885v0c0.483 0.482 1.149 0.781 1.885 0.781s1.403-0.298 1.885-0.781l12-12c0.482-0.483 0.781-1.149 0.781-1.885s-0.298-1.403-0.781-1.885l-12-12c-0.482-0.483-1.149-0.781-1.885-0.781h-0z"></path>
</symbol>
<symbol id="icon-prev_month" viewBox="0 0 21 32">
<path d="M16.667 1.333c-0.736 0-1.403 0.299-1.885 0.781l-12 12c-0.482 0.483-0.781 1.149-0.781 1.885s0.298 1.403 0.781 1.885l12 12c0.483 0.482 1.149 0.781 1.885 0.781s1.403-0.298 1.885-0.781v0c0.482-0.483 0.781-1.149 0.781-1.885s-0.298-1.403-0.781-1.885l-10.115-10.115 10.115-10.115c0.482-0.483 0.781-1.149 0.781-1.885s-0.298-1.403-0.781-1.885v0c-0.483-0.483-1.149-0.781-1.885-0.781h-0z"></path>
</symbol>
<symbol id="icon-menu" viewBox="0 0 16 16" fill="none">
  <path d="M4 6L8 10L12 6" stroke="white" stroke-width="1.5" stroke-linecap="round" stroke-linejoin="round" />
</symbol>
<symbol id="icon-calling" viewBox="0 0 18 18" fill="none">
  <path d="M7.57934 10.4315C7.64769 11.1434 7.76356 11.6724 7.92303 12.0214C8.08447 12.3693 8.37106 12.5429 8.78478 12.5429C8.86212 12.5429 8.93131 12.5308 8.99994 12.5167C9.07025 12.5308 9.13916 12.5429 9.21706 12.5429C9.62966 12.5429 9.91709 12.3693 10.0777 12.0214C10.238 11.6724 10.3519 11.1434 10.4217 10.4315L10.789 4.93532C10.8573 3.86404 10.8922 3.09538 10.8922 2.62879C10.8922 1.99372 10.7265 1.49816 10.3941 1.14238C10.0605 0.7866 9.62234 0.609131 9.07953 0.609131C9.05056 0.609131 9.02891 0.6156 9.0005 0.616725C8.9735 0.6156 8.95128 0.609131 8.92316 0.609131C8.37922 0.609131 7.94187 0.7866 7.60887 1.14238C7.27616 1.49872 7.10938 1.99457 7.10938 2.62907C7.10938 3.09566 7.14341 3.86432 7.21287 4.9356L7.57934 10.4315ZM9.01428 14.5518C8.48722 14.5518 8.03947 14.718 7.66766 15.0505C7.29612 15.3832 7.10994 15.7871 7.10994 16.2613C7.10994 16.7965 7.29837 17.2178 7.67244 17.5238C8.04819 17.8298 8.48637 17.9828 8.98728 17.9828C9.49719 17.9828 9.94184 17.832 10.3221 17.5297C10.7018 17.2282 10.8916 16.8046 10.8916 16.2618C10.8916 15.7876 10.7099 15.3838 10.3466 15.051C9.98319 14.718 9.53994 14.5518 9.01428 14.5518Z" fill="#9BE1A0" />
</symbol>
  </defs>
  </svg>

